<mxfile host="app.diagrams.net" modified="2023-11-17T05:04:58.710Z" agent="Mozilla/5.0 (Macintosh; Intel Mac OS X 10_15_7) AppleWebKit/537.36 (KHTML, like Gecko) Chrome/119.0.0.0 Safari/537.36" etag="yGw-x4rYP454jlK_AS0b" version="22.1.2" type="github">
  <diagram name="Page-1" id="8n4W0z7vJh2boMqd3Qlj">
    <mxGraphModel dx="866" dy="585" grid="1" gridSize="10" guides="1" tooltips="1" connect="1" arrows="1" fold="1" page="1" pageScale="1" pageWidth="850" pageHeight="1100" math="0" shadow="0">
      <root>
        <mxCell id="0" />
        <mxCell id="1" parent="0" />
        <mxCell id="zGiQwn67AgqQsW2nHHB1-13" style="edgeStyle=orthogonalEdgeStyle;rounded=0;orthogonalLoop=1;jettySize=auto;html=1;entryX=0;entryY=0.5;entryDx=0;entryDy=0;" edge="1" parent="1" source="zGiQwn67AgqQsW2nHHB1-3" target="zGiQwn67AgqQsW2nHHB1-11">
          <mxGeometry relative="1" as="geometry" />
        </mxCell>
        <mxCell id="zGiQwn67AgqQsW2nHHB1-3" value="Flask App" style="html=1;whiteSpace=wrap;" vertex="1" parent="1">
          <mxGeometry x="330" y="180" width="110" height="50" as="geometry" />
        </mxCell>
        <mxCell id="zGiQwn67AgqQsW2nHHB1-19" style="edgeStyle=orthogonalEdgeStyle;rounded=0;orthogonalLoop=1;jettySize=auto;html=1;entryX=0;entryY=0.5;entryDx=0;entryDy=0;" edge="1" parent="1" source="zGiQwn67AgqQsW2nHHB1-4" target="zGiQwn67AgqQsW2nHHB1-3">
          <mxGeometry relative="1" as="geometry" />
        </mxCell>
        <mxCell id="zGiQwn67AgqQsW2nHHB1-4" value="Actor" style="shape=umlActor;verticalLabelPosition=bottom;verticalAlign=top;html=1;" vertex="1" parent="1">
          <mxGeometry x="170" y="175" width="30" height="60" as="geometry" />
        </mxCell>
        <mxCell id="zGiQwn67AgqQsW2nHHB1-5" value="" style="sketch=0;outlineConnect=0;fontColor=#232F3E;gradientColor=none;fillColor=#7AA116;strokeColor=none;dashed=0;verticalLabelPosition=bottom;verticalAlign=top;align=center;html=1;fontSize=12;fontStyle=0;aspect=fixed;pointerEvents=1;shape=mxgraph.aws4.bucket;" vertex="1" parent="1">
          <mxGeometry x="584.23" y="333" width="61.54" height="64" as="geometry" />
        </mxCell>
        <mxCell id="zGiQwn67AgqQsW2nHHB1-16" style="edgeStyle=orthogonalEdgeStyle;rounded=0;orthogonalLoop=1;jettySize=auto;html=1;entryX=0.5;entryY=1;entryDx=0;entryDy=0;" edge="1" parent="1" source="zGiQwn67AgqQsW2nHHB1-6" target="zGiQwn67AgqQsW2nHHB1-9">
          <mxGeometry relative="1" as="geometry" />
        </mxCell>
        <mxCell id="zGiQwn67AgqQsW2nHHB1-18" style="edgeStyle=orthogonalEdgeStyle;rounded=0;orthogonalLoop=1;jettySize=auto;html=1;" edge="1" parent="1" source="zGiQwn67AgqQsW2nHHB1-6">
          <mxGeometry relative="1" as="geometry">
            <mxPoint x="650" y="365" as="targetPoint" />
          </mxGeometry>
        </mxCell>
        <mxCell id="zGiQwn67AgqQsW2nHHB1-6" value="Scheduler" style="html=1;whiteSpace=wrap;" vertex="1" parent="1">
          <mxGeometry x="790" y="340" width="110" height="50" as="geometry" />
        </mxCell>
        <mxCell id="zGiQwn67AgqQsW2nHHB1-15" style="edgeStyle=orthogonalEdgeStyle;rounded=0;orthogonalLoop=1;jettySize=auto;html=1;entryX=1;entryY=0.5;entryDx=0;entryDy=0;" edge="1" parent="1" source="zGiQwn67AgqQsW2nHHB1-9" target="zGiQwn67AgqQsW2nHHB1-11">
          <mxGeometry relative="1" as="geometry" />
        </mxCell>
        <mxCell id="zGiQwn67AgqQsW2nHHB1-9" value="Training" style="html=1;whiteSpace=wrap;" vertex="1" parent="1">
          <mxGeometry x="790" y="180" width="110" height="50" as="geometry" />
        </mxCell>
        <mxCell id="zGiQwn67AgqQsW2nHHB1-17" style="edgeStyle=orthogonalEdgeStyle;rounded=0;orthogonalLoop=1;jettySize=auto;html=1;startArrow=classic;startFill=1;" edge="1" parent="1" source="zGiQwn67AgqQsW2nHHB1-11">
          <mxGeometry relative="1" as="geometry">
            <mxPoint x="615" y="330" as="targetPoint" />
          </mxGeometry>
        </mxCell>
        <mxCell id="zGiQwn67AgqQsW2nHHB1-11" value="ML Model" style="html=1;whiteSpace=wrap;" vertex="1" parent="1">
          <mxGeometry x="560" y="180" width="110" height="50" as="geometry" />
        </mxCell>
        <mxCell id="zGiQwn67AgqQsW2nHHB1-21" value="AWS S3" style="text;html=1;strokeColor=none;fillColor=none;align=center;verticalAlign=middle;whiteSpace=wrap;rounded=0;" vertex="1" parent="1">
          <mxGeometry x="584.23" y="397" width="60" height="30" as="geometry" />
        </mxCell>
        <mxCell id="zGiQwn67AgqQsW2nHHB1-22" value="Predict" style="text;html=1;strokeColor=none;fillColor=none;align=center;verticalAlign=middle;whiteSpace=wrap;rounded=0;" vertex="1" parent="1">
          <mxGeometry x="470" y="175" width="60" height="30" as="geometry" />
        </mxCell>
        <mxCell id="zGiQwn67AgqQsW2nHHB1-24" value="Check for new data" style="text;html=1;strokeColor=none;fillColor=none;align=center;verticalAlign=middle;whiteSpace=wrap;rounded=0;" vertex="1" parent="1">
          <mxGeometry x="690" y="367" width="60" height="30" as="geometry" />
        </mxCell>
        <mxCell id="zGiQwn67AgqQsW2nHHB1-25" value="Trigger traininng on new data" style="text;html=1;strokeColor=none;fillColor=none;align=center;verticalAlign=middle;whiteSpace=wrap;rounded=0;" vertex="1" parent="1">
          <mxGeometry x="850" y="270" width="80" height="30" as="geometry" />
        </mxCell>
        <mxCell id="zGiQwn67AgqQsW2nHHB1-26" value="Update model" style="text;html=1;strokeColor=none;fillColor=none;align=center;verticalAlign=middle;whiteSpace=wrap;rounded=0;" vertex="1" parent="1">
          <mxGeometry x="700" y="175" width="60" height="30" as="geometry" />
        </mxCell>
        <mxCell id="zGiQwn67AgqQsW2nHHB1-27" value="Sync model" style="text;html=1;strokeColor=none;fillColor=none;align=center;verticalAlign=middle;whiteSpace=wrap;rounded=0;" vertex="1" parent="1">
          <mxGeometry x="610" y="270" width="60" height="30" as="geometry" />
        </mxCell>
        <mxCell id="zGiQwn67AgqQsW2nHHB1-28" value="Check fraud data" style="text;html=1;strokeColor=none;fillColor=none;align=center;verticalAlign=middle;whiteSpace=wrap;rounded=0;" vertex="1" parent="1">
          <mxGeometry x="240" y="170" width="60" height="30" as="geometry" />
        </mxCell>
        <mxCell id="zGiQwn67AgqQsW2nHHB1-29" value="Store model and data" style="text;html=1;strokeColor=none;fillColor=none;align=center;verticalAlign=middle;whiteSpace=wrap;rounded=0;" vertex="1" parent="1">
          <mxGeometry x="552.11" y="420" width="125.77" height="30" as="geometry" />
        </mxCell>
      </root>
    </mxGraphModel>
  </diagram>
</mxfile>
